# xmcd CD database file
# Generated: mer apr 2 18:46:24 2003 by KSCD
# 
# Track frame offsets:
#       150
#       19036
#       39215
#       59112
#       80206
#       111684
#       132412
#       149860
#       168646
#       191356
#       210797
#       227616
#       243650
#       260011
#
# Disc length: 3944 seconds
#
# Revision: 2
# Processed by: cddbd v1.4PL0 Copyright (c) Steve Scherf et al.
# Submitted via: Kscd 1.3.3
#
DISCID=d60f660e
DTITLE=Sergio Cammariere - Dalla Pace Del Mare Lontano
DYEAR=1900
DGENRE=
TTITLE0=Tutto quello che un uomo
TTITLE1=Sorella mia
TTITLE2=Tempo perduto
TTITLE3=Via da questo mare
TTITLE4=Cambiamenti del mondo
TTITLE5=Dalla pace del mare lontano
TTITLE6=Apri la porta
TTITLE7=Canto nel vento
TTITLE8=Le porte del sogno
TTITLE9=Il mare
TTITLE10=Per ricordarmi di te
TTITLE11=Paese di gaol
TTITLE12=Vita d'artista
TTITLE13=Cantautore piccolino
EXTD=
EXTT0=
EXTT1=
EXTT2=
EXTT3=
EXTT4=
EXTT5=
EXTT6=
EXTT7=
EXTT8=
EXTT9=
EXTT10=
EXTT11=
EXTT12=
EXTT13=
PLAYORDER=
